# Blender 4.3.2
# www.blender.org
mtllib pipe_t.mtl
o Cylinder.001
v 0.503228 -0.400235 0.100000
v 0.003521 -0.400235 0.100000
v 0.503228 -0.419744 0.098079
v 0.003521 -0.419744 0.098078
v 0.503228 -0.438503 0.092388
v 0.003521 -0.438503 0.092388
v 0.503228 -0.455792 0.083147
v 0.003521 -0.455792 0.083147
v 0.503228 -0.470945 0.070711
v 0.003521 -0.470945 0.070710
v 0.503228 -0.483382 0.055557
v 0.003521 -0.483382 0.055557
v 0.503228 -0.492623 0.038269
v 0.003521 -0.492623 0.038268
v 0.503228 -0.498313 0.019509
v 0.003521 -0.498313 0.019509
v 0.503228 -0.500235 0.000000
v 0.003521 -0.500235 -0.000000
v 0.503228 -0.498313 -0.019509
v 0.003521 -0.498313 -0.019509
v 0.503228 -0.492623 -0.038268
v 0.003521 -0.492623 -0.038269
v 0.503228 -0.483382 -0.055557
v 0.003521 -0.483382 -0.055557
v 0.503228 -0.470945 -0.070710
v 0.003521 -0.470945 -0.070711
v 0.503228 -0.455792 -0.083147
v 0.003521 -0.455792 -0.083147
v 0.503228 -0.438503 -0.092388
v 0.003521 -0.438503 -0.092388
v 0.503228 -0.419744 -0.098078
v 0.003521 -0.419744 -0.098079
v 0.503228 -0.400235 -0.100000
v 0.003521 -0.400235 -0.100000
v 0.503228 -0.380726 -0.098078
v 0.003521 -0.380726 -0.098079
v 0.503228 -0.361966 -0.092388
v 0.003521 -0.361966 -0.092388
v 0.503228 -0.344678 -0.083147
v 0.003521 -0.344678 -0.083147
v 0.503228 -0.329524 -0.070710
v 0.003521 -0.329524 -0.070711
v 0.503228 -0.317088 -0.055557
v 0.003521 -0.317088 -0.055557
v 0.503228 -0.307847 -0.038268
v 0.003521 -0.307847 -0.038269
v 0.503228 -0.302156 -0.019509
v 0.003521 -0.302156 -0.019509
v 0.503228 -0.300235 0.000000
v 0.003521 -0.300235 -0.000000
v 0.503228 -0.302156 0.019509
v 0.003521 -0.302156 0.019509
v 0.503228 -0.307847 0.038269
v 0.003521 -0.307847 0.038268
v 0.503228 -0.317088 0.055557
v 0.003521 -0.317088 0.055557
v 0.503228 -0.329524 0.070711
v 0.003521 -0.329524 0.070710
v 0.503228 -0.344678 0.083147
v 0.003521 -0.344678 0.083147
v 0.503228 -0.361966 0.092388
v 0.003521 -0.361966 0.092388
v 0.503228 -0.380726 0.098079
v 0.003521 -0.380726 0.098078
v 0.000000 -0.300235 -0.500000
v 0.000000 -0.300235 0.500000
v 0.019509 -0.302156 -0.500000
v 0.019509 -0.302156 0.500000
v 0.038268 -0.307847 -0.500000
v 0.038268 -0.307847 0.500000
v 0.055557 -0.317088 -0.500000
v 0.055557 -0.317088 0.500000
v 0.070711 -0.329524 -0.500000
v 0.070711 -0.329524 0.500000
v 0.083147 -0.344678 -0.500000
v 0.083147 -0.344678 0.500000
v 0.092388 -0.361966 -0.500000
v 0.092388 -0.361966 0.500000
v 0.098079 -0.380726 -0.500000
v 0.098079 -0.380726 0.500000
v 0.100000 -0.400235 -0.500000
v 0.100000 -0.400235 0.500000
v 0.098079 -0.419744 -0.500000
v 0.098079 -0.419744 0.500000
v 0.092388 -0.438503 -0.500000
v 0.092388 -0.438503 0.500000
v 0.083147 -0.455792 -0.500000
v 0.083147 -0.455792 0.500000
v 0.070711 -0.470945 -0.500000
v 0.070711 -0.470945 0.500000
v 0.055557 -0.483382 -0.500000
v 0.055557 -0.483382 0.500000
v 0.038268 -0.492623 -0.500000
v 0.038268 -0.492623 0.500000
v 0.019509 -0.498313 -0.500000
v 0.019509 -0.498313 0.500000
v 0.000000 -0.500235 -0.500000
v 0.000000 -0.500235 0.500000
v -0.019509 -0.498313 -0.500000
v -0.019509 -0.498313 0.500000
v -0.038268 -0.492623 -0.500000
v -0.038268 -0.492623 0.500000
v -0.055557 -0.483382 -0.500000
v -0.055557 -0.483382 0.500000
v -0.070711 -0.470945 -0.500000
v -0.070711 -0.470945 0.500000
v -0.083147 -0.455792 -0.500000
v -0.083147 -0.455792 0.500000
v -0.092388 -0.438503 -0.500000
v -0.092388 -0.438503 0.500000
v -0.098079 -0.419744 -0.500000
v -0.098079 -0.419744 0.500000
v -0.100000 -0.400235 -0.500000
v -0.100000 -0.400235 0.500000
v -0.098079 -0.380726 -0.500000
v -0.098079 -0.380726 0.500000
v -0.092388 -0.361966 -0.500000
v -0.092388 -0.361966 0.500000
v -0.083147 -0.344678 -0.500000
v -0.083147 -0.344678 0.500000
v -0.070711 -0.329524 -0.500000
v -0.070711 -0.329524 0.500000
v -0.055557 -0.317088 -0.500000
v -0.055557 -0.317088 0.500000
v -0.038268 -0.307847 -0.500000
v -0.038268 -0.307847 0.500000
v -0.019509 -0.302156 -0.500000
v -0.019509 -0.302156 0.500000
vn -0.0000 -0.0980 0.9952
vn -0.0000 -0.2903 0.9569
vn -0.0000 -0.4714 0.8819
vn -0.0000 -0.6344 0.7730
vn -0.0000 -0.7730 0.6344
vn -0.0000 -0.8819 0.4714
vn -0.0000 -0.9569 0.2903
vn -0.0000 -0.9952 0.0980
vn -0.0000 -0.9952 -0.0980
vn -0.0000 -0.9569 -0.2903
vn -0.0000 -0.8819 -0.4714
vn -0.0000 -0.7730 -0.6344
vn -0.0000 -0.6344 -0.7730
vn -0.0000 -0.4714 -0.8819
vn -0.0000 -0.2903 -0.9569
vn -0.0000 -0.0980 -0.9952
vn -0.0000 0.0980 -0.9952
vn -0.0000 0.2903 -0.9569
vn -0.0000 0.4714 -0.8819
vn -0.0000 0.6344 -0.7730
vn -0.0000 0.7730 -0.6344
vn -0.0000 0.8819 -0.4714
vn -0.0000 0.9569 -0.2903
vn -0.0000 0.9952 -0.0980
vn -0.0000 0.9952 0.0980
vn -0.0000 0.9569 0.2903
vn -0.0000 0.8819 0.4714
vn -0.0000 0.7730 0.6344
vn -0.0000 0.6344 0.7730
vn -0.0000 0.4714 0.8819
vn -1.0000 -0.0000 -0.0000
vn -0.0000 0.2903 0.9569
vn -0.0000 0.0980 0.9952
vn 1.0000 -0.0000 -0.0000
vn 0.0980 0.9952 -0.0000
vn 0.2903 0.9569 -0.0000
vn 0.4714 0.8819 -0.0000
vn 0.6344 0.7730 -0.0000
vn 0.7730 0.6344 -0.0000
vn 0.8819 0.4714 -0.0000
vn 0.9569 0.2903 -0.0000
vn 0.9952 0.0980 -0.0000
vn 0.9952 -0.0980 -0.0000
vn 0.9569 -0.2903 -0.0000
vn 0.8819 -0.4714 -0.0000
vn 0.7730 -0.6344 -0.0000
vn 0.6344 -0.7730 -0.0000
vn 0.4714 -0.8819 -0.0000
vn 0.2903 -0.9569 -0.0000
vn 0.0980 -0.9952 -0.0000
vn -0.0980 -0.9952 -0.0000
vn -0.2903 -0.9569 -0.0000
vn -0.4714 -0.8819 -0.0000
vn -0.6344 -0.7730 -0.0000
vn -0.7730 -0.6344 -0.0000
vn -0.8819 -0.4714 -0.0000
vn -0.9569 -0.2903 -0.0000
vn -0.9952 -0.0980 -0.0000
vn -0.9952 0.0980 -0.0000
vn -0.9569 0.2903 -0.0000
vn -0.8819 0.4714 -0.0000
vn -0.7730 0.6344 -0.0000
vn -0.6344 0.7730 -0.0000
vn -0.4714 0.8819 -0.0000
vn -0.0000 -0.0000 1.0000
vn -0.2903 0.9569 -0.0000
vn -0.0980 0.9952 -0.0000
vn -0.0000 -0.0000 -1.0000
vt 1.962442 0.014751
vt 1.962442 0.992818
vt 1.901313 0.992818
vt 1.901313 0.014751
vt 1.840184 0.992818
vt 1.840184 0.014751
vt 1.779055 0.992818
vt 1.779055 0.014751
vt 1.717925 0.992818
vt 1.717925 0.014751
vt 1.656796 0.992818
vt 1.656796 0.014751
vt 1.595667 0.992818
vt 1.595667 0.014751
vt 1.534538 0.992818
vt 1.534538 0.014751
vt 1.473408 0.992818
vt 1.473408 0.014751
vt 1.412279 0.992818
vt 1.412279 0.014751
vt 1.351150 0.992818
vt 1.351150 0.014751
vt 1.290021 0.992818
vt 1.290021 0.014751
vt 1.228892 0.992818
vt 1.228892 0.014751
vt 1.167763 0.992818
vt 1.167763 0.014751
vt 1.106633 0.992818
vt 1.106633 0.014751
vt 1.045504 0.992818
vt 1.045504 0.014751
vt 0.984375 0.992818
vt 0.984375 0.014751
vt 0.923246 0.992818
vt 0.923246 0.014751
vt 0.862117 0.992818
vt 0.862117 0.014751
vt 0.800987 0.992818
vt 0.800987 0.014751
vt 0.739858 0.992818
vt 0.739858 0.014751
vt 0.678729 0.992818
vt 0.678729 0.014751
vt 0.617600 0.992818
vt 0.617600 0.014751
vt 0.556471 0.992818
vt 0.556471 0.014751
vt 0.495341 0.992818
vt 0.495341 0.014751
vt 0.434212 0.992818
vt 0.434212 0.014751
vt 0.373083 0.992818
vt 0.373083 0.014751
vt 0.311954 0.992818
vt 0.311954 0.014751
vt 0.250825 0.992818
vt 0.250825 0.014751
vt 0.189695 0.992818
vt 0.189695 0.014751
vt 0.128566 0.992818
vt 0.128566 0.014751
vt 0.586931 -0.013832
vt 0.495341 -0.004811
vt 0.403752 -0.013832
vt 0.315682 -0.040547
vt 0.234517 -0.083931
vt 0.163374 -0.142316
vt 0.104990 -0.213458
vt 0.061606 -0.294624
vt 0.034890 -0.382693
vt 0.025869 -0.474283
vt 0.034890 -0.565872
vt 0.061606 -0.653942
vt 0.104990 -0.735108
vt 0.163374 -0.806250
vt 0.234517 -0.864635
vt 0.315682 -0.908019
vt 0.403752 -0.934734
vt 0.495341 -0.943755
vt 0.586931 -0.934734
vt 0.675001 -0.908019
vt 0.756166 -0.864635
vt 0.827308 -0.806250
vt 0.885693 -0.735108
vt 0.929077 -0.653942
vt 0.955793 -0.565872
vt 0.964814 -0.474283
vt 0.955793 -0.382693
vt 0.929077 -0.294624
vt 0.885693 -0.213458
vt 0.827308 -0.142316
vt 0.756166 -0.083931
vt 0.675001 -0.040547
vt 0.067437 0.992818
vt 0.067437 0.014751
vt 0.006308 0.992818
vt 0.006308 0.014751
vt 1.473408 -0.004811
vt 1.564998 -0.013832
vt 1.653068 -0.040547
vt 1.734233 -0.083931
vt 1.805375 -0.142316
vt 1.863760 -0.213458
vt 1.907144 -0.294624
vt 1.933860 -0.382693
vt 1.942881 -0.474283
vt 1.933860 -0.565872
vt 1.907144 -0.653942
vt 1.863760 -0.735108
vt 1.805375 -0.806250
vt 1.734233 -0.864635
vt 1.653068 -0.908019
vt 1.564998 -0.934734
vt 1.473408 -0.943755
vt 1.381819 -0.934734
vt 1.293749 -0.908019
vt 1.212584 -0.864635
vt 1.141441 -0.806250
vt 1.083057 -0.735108
vt 1.039673 -0.653942
vt 1.012957 -0.565872
vt 1.003936 -0.474283
vt 1.012957 -0.382693
vt 1.039673 -0.294624
vt 1.083057 -0.213458
vt 1.141441 -0.142316
vt 1.212584 -0.083931
vt 1.293749 -0.040547
vt 1.381819 -0.013832
s 0
usemtl Material.001
f 1/1/1 2/2/1 4/3/1 3/4/1
f 3/4/2 4/3/2 6/5/2 5/6/2
f 5/6/3 6/5/3 8/7/3 7/8/3
f 7/8/4 8/7/4 10/9/4 9/10/4
f 9/10/5 10/9/5 12/11/5 11/12/5
f 11/12/6 12/11/6 14/13/6 13/14/6
f 13/14/7 14/13/7 16/15/7 15/16/7
f 15/16/8 16/15/8 18/17/8 17/18/8
f 17/18/9 18/17/9 20/19/9 19/20/9
f 19/20/10 20/19/10 22/21/10 21/22/10
f 21/22/11 22/21/11 24/23/11 23/24/11
f 23/24/12 24/23/12 26/25/12 25/26/12
f 25/26/13 26/25/13 28/27/13 27/28/13
f 27/28/14 28/27/14 30/29/14 29/30/14
f 29/30/15 30/29/15 32/31/15 31/32/15
f 31/32/16 32/31/16 34/33/16 33/34/16
f 33/34/17 34/33/17 36/35/17 35/36/17
f 35/36/18 36/35/18 38/37/18 37/38/18
f 37/38/19 38/37/19 40/39/19 39/40/19
f 39/40/20 40/39/20 42/41/20 41/42/20
f 41/42/21 42/41/21 44/43/21 43/44/21
f 43/44/22 44/43/22 46/45/22 45/46/22
f 45/46/23 46/45/23 48/47/23 47/48/23
f 47/48/24 48/47/24 50/49/24 49/50/24
f 49/50/25 50/49/25 52/51/25 51/52/25
f 51/52/26 52/51/26 54/53/26 53/54/26
f 53/54/27 54/53/27 56/55/27 55/56/27
f 55/56/28 56/55/28 58/57/28 57/58/28
f 57/58/29 58/57/29 60/59/29 59/60/29
f 59/60/30 60/59/30 62/61/30 61/62/30
f 4/63/31 2/64/31 64/65/31 62/66/31 60/67/31 58/68/31 56/69/31 54/70/31 52/71/31 50/72/31 48/73/31 46/74/31 44/75/31 42/76/31 40/77/31 38/78/31 36/79/31 34/80/31 32/81/31 30/82/31 28/83/31 26/84/31 24/85/31 22/86/31 20/87/31 18/88/31 16/89/31 14/90/31 12/91/31 10/92/31 8/93/31 6/94/31
f 61/62/32 62/61/32 64/95/32 63/96/32
f 63/96/33 64/95/33 2/97/33 1/98/33
f 1/99/34 3/100/34 5/101/34 7/102/34 9/103/34 11/104/34 13/105/34 15/106/34 17/107/34 19/108/34 21/109/34 23/110/34 25/111/34 27/112/34 29/113/34 31/114/34 33/115/34 35/116/34 37/117/34 39/118/34 41/119/34 43/120/34 45/121/34 47/122/34 49/123/34 51/124/34 53/125/34 55/126/34 57/127/34 59/128/34 61/129/34 63/130/34
f 65/1/35 66/2/35 68/3/35 67/4/35
f 67/4/36 68/3/36 70/5/36 69/6/36
f 69/6/37 70/5/37 72/7/37 71/8/37
f 71/8/38 72/7/38 74/9/38 73/10/38
f 73/10/39 74/9/39 76/11/39 75/12/39
f 75/12/40 76/11/40 78/13/40 77/14/40
f 77/14/41 78/13/41 80/15/41 79/16/41
f 79/16/42 80/15/42 82/17/42 81/18/42
f 81/18/43 82/17/43 84/19/43 83/20/43
f 83/20/44 84/19/44 86/21/44 85/22/44
f 85/22/45 86/21/45 88/23/45 87/24/45
f 87/24/46 88/23/46 90/25/46 89/26/46
f 89/26/47 90/25/47 92/27/47 91/28/47
f 91/28/48 92/27/48 94/29/48 93/30/48
f 93/30/49 94/29/49 96/31/49 95/32/49
f 95/32/50 96/31/50 98/33/50 97/34/50
f 97/34/51 98/33/51 100/35/51 99/36/51
f 99/36/52 100/35/52 102/37/52 101/38/52
f 101/38/53 102/37/53 104/39/53 103/40/53
f 103/40/54 104/39/54 106/41/54 105/42/54
f 105/42/55 106/41/55 108/43/55 107/44/55
f 107/44/56 108/43/56 110/45/56 109/46/56
f 109/46/57 110/45/57 112/47/57 111/48/57
f 111/48/58 112/47/58 114/49/58 113/50/58
f 113/50/59 114/49/59 116/51/59 115/52/59
f 115/52/60 116/51/60 118/53/60 117/54/60
f 117/54/61 118/53/61 120/55/61 119/56/61
f 119/56/62 120/55/62 122/57/62 121/58/62
f 121/58/63 122/57/63 124/59/63 123/60/63
f 123/60/64 124/59/64 126/61/64 125/62/64
f 68/63/65 66/64/65 128/65/65 126/66/65 124/67/65 122/68/65 120/69/65 118/70/65 116/71/65 114/72/65 112/73/65 110/74/65 108/75/65 106/76/65 104/77/65 102/78/65 100/79/65 98/80/65 96/81/65 94/82/65 92/83/65 90/84/65 88/85/65 86/86/65 84/87/65 82/88/65 80/89/65 78/90/65 76/91/65 74/92/65 72/93/65 70/94/65
f 125/62/66 126/61/66 128/95/66 127/96/66
f 127/96/67 128/95/67 66/97/67 65/98/67
f 65/99/68 67/100/68 69/101/68 71/102/68 73/103/68 75/104/68 77/105/68 79/106/68 81/107/68 83/108/68 85/109/68 87/110/68 89/111/68 91/112/68 93/113/68 95/114/68 97/115/68 99/116/68 101/117/68 103/118/68 105/119/68 107/120/68 109/121/68 111/122/68 113/123/68 115/124/68 117/125/68 119/126/68 121/127/68 123/128/68 125/129/68 127/130/68
