# Blender 4.3.2
# www.blender.org
mtllib pipe_x.mtl
o Cylinder.002
v -0.000294 -0.400235 0.100000
v -0.500000 -0.400235 0.100000
v -0.000294 -0.419744 0.098079
v -0.500000 -0.419744 0.098078
v -0.000294 -0.438503 0.092388
v -0.500000 -0.438503 0.092388
v -0.000293 -0.455792 0.083147
v -0.500000 -0.455792 0.083147
v -0.000293 -0.470945 0.070711
v -0.500000 -0.470945 0.070710
v -0.000293 -0.483382 0.055557
v -0.500000 -0.483382 0.055557
v -0.000293 -0.492623 0.038269
v -0.500000 -0.492623 0.038268
v -0.000293 -0.498313 0.019509
v -0.500000 -0.498313 0.019509
v -0.000293 -0.500235 0.000000
v -0.500000 -0.500235 -0.000000
v -0.000293 -0.498313 -0.019509
v -0.500000 -0.498313 -0.019509
v -0.000293 -0.492623 -0.038268
v -0.500000 -0.492623 -0.038269
v -0.000293 -0.483382 -0.055557
v -0.500000 -0.483382 -0.055557
v -0.000293 -0.470945 -0.070710
v -0.500000 -0.470945 -0.070711
v -0.000293 -0.455792 -0.083147
v -0.500000 -0.455792 -0.083147
v -0.000293 -0.438503 -0.092388
v -0.500000 -0.438503 -0.092388
v -0.000293 -0.419744 -0.098078
v -0.500000 -0.419744 -0.098079
v -0.000293 -0.400235 -0.100000
v -0.500000 -0.400235 -0.100000
v -0.000293 -0.380726 -0.098078
v -0.500000 -0.380726 -0.098079
v -0.000293 -0.361966 -0.092388
v -0.500000 -0.361966 -0.092388
v -0.000293 -0.344678 -0.083147
v -0.500000 -0.344678 -0.083147
v -0.000293 -0.329524 -0.070710
v -0.500000 -0.329524 -0.070711
v -0.000293 -0.317088 -0.055557
v -0.500000 -0.317088 -0.055557
v -0.000293 -0.307847 -0.038268
v -0.500000 -0.307847 -0.038269
v -0.000293 -0.302156 -0.019509
v -0.500000 -0.302156 -0.019509
v -0.000293 -0.300235 0.000000
v -0.500000 -0.300235 -0.000000
v -0.000293 -0.302156 0.019509
v -0.500000 -0.302156 0.019509
v -0.000293 -0.307847 0.038269
v -0.500000 -0.307847 0.038268
v -0.000293 -0.317088 0.055557
v -0.500000 -0.317088 0.055557
v -0.000294 -0.329524 0.070711
v -0.500000 -0.329524 0.070710
v -0.000294 -0.344678 0.083147
v -0.500000 -0.344678 0.083147
v -0.000294 -0.361966 0.092388
v -0.500000 -0.361966 0.092388
v -0.000294 -0.380726 0.098079
v -0.500000 -0.380726 0.098078
v 0.000000 -0.300235 -0.500000
v 0.000000 -0.300235 0.500000
v 0.019509 -0.302156 -0.500000
v 0.019509 -0.302156 0.500000
v 0.038268 -0.307847 -0.500000
v 0.038268 -0.307847 0.500000
v 0.055557 -0.317088 -0.500000
v 0.055557 -0.317088 0.500000
v 0.070711 -0.329524 -0.500000
v 0.070711 -0.329524 0.500000
v 0.083147 -0.344678 -0.500000
v 0.083147 -0.344678 0.500000
v 0.092388 -0.361966 -0.500000
v 0.092388 -0.361966 0.500000
v 0.098079 -0.380726 -0.500000
v 0.098079 -0.380726 0.500000
v 0.100000 -0.400235 -0.500000
v 0.100000 -0.400235 0.500000
v 0.098079 -0.419744 -0.500000
v 0.098079 -0.419744 0.500000
v 0.092388 -0.438503 -0.500000
v 0.092388 -0.438503 0.500000
v 0.083147 -0.455792 -0.500000
v 0.083147 -0.455792 0.500000
v 0.070711 -0.470945 -0.500000
v 0.070711 -0.470945 0.500000
v 0.055557 -0.483382 -0.500000
v 0.055557 -0.483382 0.500000
v 0.038268 -0.492623 -0.500000
v 0.038268 -0.492623 0.500000
v 0.019509 -0.498313 -0.500000
v 0.019509 -0.498313 0.500000
v 0.000000 -0.500235 -0.500000
v 0.000000 -0.500235 0.500000
v -0.019509 -0.498313 -0.500000
v -0.019509 -0.498313 0.500000
v -0.038268 -0.492623 -0.500000
v -0.038268 -0.492623 0.500000
v -0.055557 -0.483382 -0.500000
v -0.055557 -0.483382 0.500000
v -0.070711 -0.470945 -0.500000
v -0.070711 -0.470945 0.500000
v -0.083147 -0.455792 -0.500000
v -0.083147 -0.455792 0.500000
v -0.092388 -0.438503 -0.500000
v -0.092388 -0.438503 0.500000
v -0.098078 -0.419744 -0.500000
v -0.098078 -0.419744 0.500000
v -0.100000 -0.400235 -0.500000
v -0.100000 -0.400235 0.500000
v -0.098079 -0.380726 -0.500000
v -0.098079 -0.380726 0.500000
v -0.092388 -0.361966 -0.500000
v -0.092388 -0.361966 0.500000
v -0.083147 -0.344678 -0.500000
v -0.083147 -0.344678 0.500000
v -0.070711 -0.329524 -0.500000
v -0.070711 -0.329524 0.500000
v -0.055557 -0.317088 -0.500000
v -0.055557 -0.317088 0.500000
v -0.038268 -0.307847 -0.500000
v -0.038268 -0.307847 0.500000
v -0.019509 -0.302156 -0.500000
v -0.019509 -0.302156 0.500000
v 0.503228 -0.400235 0.100000
v 0.003521 -0.400235 0.100000
v 0.503228 -0.419744 0.098079
v 0.003521 -0.419744 0.098078
v 0.503228 -0.438503 0.092388
v 0.003521 -0.438503 0.092388
v 0.503228 -0.455792 0.083147
v 0.003521 -0.455792 0.083147
v 0.503228 -0.470945 0.070711
v 0.003521 -0.470945 0.070710
v 0.503228 -0.483382 0.055557
v 0.003521 -0.483382 0.055557
v 0.503228 -0.492623 0.038269
v 0.003521 -0.492623 0.038268
v 0.503228 -0.498313 0.019509
v 0.003521 -0.498313 0.019509
v 0.503228 -0.500235 0.000000
v 0.003521 -0.500235 -0.000000
v 0.503228 -0.498313 -0.019509
v 0.003521 -0.498313 -0.019509
v 0.503228 -0.492623 -0.038268
v 0.003521 -0.492623 -0.038269
v 0.503228 -0.483382 -0.055557
v 0.003521 -0.483382 -0.055557
v 0.503228 -0.470945 -0.070710
v 0.003521 -0.470945 -0.070711
v 0.503228 -0.455792 -0.083147
v 0.003521 -0.455792 -0.083147
v 0.503228 -0.438503 -0.092388
v 0.003521 -0.438503 -0.092388
v 0.503228 -0.419744 -0.098078
v 0.003521 -0.419744 -0.098079
v 0.503228 -0.400235 -0.100000
v 0.003521 -0.400235 -0.100000
v 0.503228 -0.380726 -0.098078
v 0.003521 -0.380726 -0.098079
v 0.503228 -0.361966 -0.092388
v 0.003521 -0.361966 -0.092388
v 0.503228 -0.344678 -0.083147
v 0.003521 -0.344678 -0.083147
v 0.503228 -0.329524 -0.070710
v 0.003521 -0.329524 -0.070711
v 0.503228 -0.317088 -0.055557
v 0.003521 -0.317088 -0.055557
v 0.503228 -0.307847 -0.038268
v 0.003521 -0.307847 -0.038269
v 0.503228 -0.302156 -0.019509
v 0.003521 -0.302156 -0.019509
v 0.503228 -0.300235 0.000000
v 0.003521 -0.300235 -0.000000
v 0.503228 -0.302156 0.019509
v 0.003521 -0.302156 0.019509
v 0.503228 -0.307847 0.038269
v 0.003521 -0.307847 0.038268
v 0.503228 -0.317088 0.055557
v 0.003521 -0.317088 0.055557
v 0.503228 -0.329524 0.070711
v 0.003521 -0.329524 0.070710
v 0.503228 -0.344678 0.083147
v 0.003521 -0.344678 0.083147
v 0.503228 -0.361966 0.092388
v 0.003521 -0.361966 0.092388
v 0.503228 -0.380726 0.098079
v 0.003521 -0.380726 0.098078
vn -0.0000 -0.0980 0.9952
vn -0.0000 -0.2903 0.9569
vn -0.0000 -0.4714 0.8819
vn -0.0000 -0.6344 0.7730
vn -0.0000 -0.7730 0.6344
vn -0.0000 -0.8819 0.4714
vn -0.0000 -0.9569 0.2903
vn -0.0000 -0.9952 0.0980
vn -0.0000 -0.9952 -0.0980
vn -0.0000 -0.9569 -0.2903
vn -0.0000 -0.8819 -0.4714
vn -0.0000 -0.7730 -0.6344
vn -0.0000 -0.6344 -0.7730
vn -0.0000 -0.4714 -0.8819
vn -0.0000 -0.2903 -0.9569
vn -0.0000 -0.0980 -0.9952
vn -0.0000 0.0980 -0.9952
vn -0.0000 0.2903 -0.9569
vn -0.0000 0.4714 -0.8819
vn -0.0000 0.6344 -0.7730
vn -0.0000 0.7730 -0.6344
vn -0.0000 0.8819 -0.4714
vn -0.0000 0.9569 -0.2903
vn -0.0000 0.9952 -0.0980
vn -0.0000 0.9952 0.0980
vn -0.0000 0.9569 0.2903
vn -0.0000 0.8819 0.4714
vn -0.0000 0.7730 0.6344
vn -0.0000 0.6344 0.7730
vn -0.0000 0.4714 0.8819
vn -1.0000 -0.0000 -0.0000
vn -0.0000 0.2903 0.9569
vn -0.0000 0.0980 0.9952
vn 1.0000 -0.0000 -0.0000
vn 0.0980 0.9952 -0.0000
vn 0.2903 0.9569 -0.0000
vn 0.4714 0.8819 -0.0000
vn 0.6344 0.7730 -0.0000
vn 0.7730 0.6344 -0.0000
vn 0.8819 0.4714 -0.0000
vn 0.9569 0.2903 -0.0000
vn 0.9952 0.0980 -0.0000
vn 0.9952 -0.0980 -0.0000
vn 0.9569 -0.2903 -0.0000
vn 0.8819 -0.4714 -0.0000
vn 0.7730 -0.6344 -0.0000
vn 0.6344 -0.7730 -0.0000
vn 0.4714 -0.8819 -0.0000
vn 0.2903 -0.9569 -0.0000
vn 0.0980 -0.9952 -0.0000
vn -0.0980 -0.9952 -0.0000
vn -0.2903 -0.9569 -0.0000
vn -0.4714 -0.8819 -0.0000
vn -0.6344 -0.7730 -0.0000
vn -0.7730 -0.6344 -0.0000
vn -0.8819 -0.4714 -0.0000
vn -0.9569 -0.2903 -0.0000
vn -0.9952 -0.0980 -0.0000
vn -0.9952 0.0980 -0.0000
vn -0.9569 0.2903 -0.0000
vn -0.8819 0.4714 -0.0000
vn -0.7730 0.6344 -0.0000
vn -0.6344 0.7730 -0.0000
vn -0.4714 0.8819 -0.0000
vn -0.0000 -0.0000 1.0000
vn -0.2903 0.9569 -0.0000
vn -0.0980 0.9952 -0.0000
vn -0.0000 -0.0000 -1.0000
vt 1.963801 0.011599
vt 1.963801 0.985539
vt 1.902930 0.985539
vt 1.902930 0.011599
vt 1.842059 0.985539
vt 1.842059 0.011599
vt 1.781187 0.985539
vt 1.781187 0.011599
vt 1.720316 0.985539
vt 1.720316 0.011599
vt 1.659445 0.985539
vt 1.659445 0.011599
vt 1.598574 0.985539
vt 1.598574 0.011599
vt 1.537703 0.985539
vt 1.537703 0.011599
vt 1.476832 0.985539
vt 1.476832 0.011599
vt 1.415960 0.985539
vt 1.415960 0.011599
vt 1.355089 0.985539
vt 1.355089 0.011599
vt 1.294218 0.985539
vt 1.294218 0.011599
vt 1.233347 0.985539
vt 1.233347 0.011599
vt 1.172476 0.985539
vt 1.172476 0.011599
vt 1.111604 0.985539
vt 1.111604 0.011599
vt 1.050733 0.985539
vt 1.050733 0.011599
vt 0.989862 0.985539
vt 0.989862 0.011599
vt 0.928991 0.985539
vt 0.928991 0.011599
vt 0.868120 0.985539
vt 0.868120 0.011599
vt 0.807248 0.985539
vt 0.807248 0.011599
vt 0.746377 0.985539
vt 0.746377 0.011599
vt 0.685506 0.985539
vt 0.685506 0.011599
vt 0.624635 0.985539
vt 0.624635 0.011599
vt 0.563764 0.985539
vt 0.563764 0.011599
vt 0.502892 0.985539
vt 0.502892 0.011599
vt 0.442021 0.985539
vt 0.442021 0.011599
vt 0.381150 0.985539
vt 0.381150 0.011599
vt 0.320279 0.985539
vt 0.320279 0.011599
vt 0.259408 0.985539
vt 0.259408 0.011599
vt 0.198536 0.985539
vt 0.198536 0.011599
vt 0.137665 0.985539
vt 0.137665 0.011599
vt 0.594095 -0.016862
vt 0.502892 -0.007879
vt 0.411689 -0.016862
vt 0.323991 -0.043465
vt 0.243168 -0.086666
vt 0.172327 -0.144804
vt 0.114188 -0.215646
vt 0.070987 -0.296469
vt 0.044384 -0.384167
vt 0.035402 -0.475370
vt 0.044384 -0.566573
vt 0.070987 -0.654271
vt 0.114188 -0.735094
vt 0.172327 -0.805936
vt 0.243168 -0.864075
vt 0.323991 -0.907275
vt 0.411689 -0.933878
vt 0.502892 -0.942861
vt 0.594095 -0.933878
vt 0.681793 -0.907275
vt 0.762616 -0.864075
vt 0.833458 -0.805936
vt 0.891597 -0.735094
vt 0.934798 -0.654271
vt 0.961401 -0.566573
vt 0.970383 -0.475370
vt 0.961401 -0.384167
vt 0.934798 -0.296469
vt 0.891597 -0.215646
vt 0.833458 -0.144804
vt 0.762616 -0.086666
vt 0.681793 -0.043465
vt 0.076794 0.985539
vt 0.076794 0.011599
vt 0.015923 0.985539
vt 0.015923 0.011599
vt 1.476832 -0.007879
vt 1.568035 -0.016862
vt 1.655733 -0.043465
vt 1.736555 -0.086666
vt 1.807397 -0.144804
vt 1.865536 -0.215646
vt 1.908737 -0.296469
vt 1.935340 -0.384167
vt 1.944322 -0.475370
vt 1.935340 -0.566573
vt 1.908737 -0.654271
vt 1.865536 -0.735094
vt 1.807397 -0.805936
vt 1.736555 -0.864075
vt 1.655733 -0.907275
vt 1.568035 -0.933878
vt 1.476832 -0.942861
vt 1.385629 -0.933878
vt 1.297930 -0.907275
vt 1.217108 -0.864075
vt 1.146266 -0.805936
vt 1.088127 -0.735094
vt 1.044926 -0.654271
vt 1.018324 -0.566573
vt 1.009341 -0.475370
vt 1.018324 -0.384167
vt 1.044926 -0.296469
vt 1.088127 -0.215646
vt 1.146266 -0.144804
vt 1.217108 -0.086666
vt 1.297930 -0.043465
vt 1.385629 -0.016862
s 0
usemtl Material.001
f 1/1/1 2/2/1 4/3/1 3/4/1
f 3/4/2 4/3/2 6/5/2 5/6/2
f 5/6/3 6/5/3 8/7/3 7/8/3
f 7/8/4 8/7/4 10/9/4 9/10/4
f 9/10/5 10/9/5 12/11/5 11/12/5
f 11/12/6 12/11/6 14/13/6 13/14/6
f 13/14/7 14/13/7 16/15/7 15/16/7
f 15/16/8 16/15/8 18/17/8 17/18/8
f 17/18/9 18/17/9 20/19/9 19/20/9
f 19/20/10 20/19/10 22/21/10 21/22/10
f 21/22/11 22/21/11 24/23/11 23/24/11
f 23/24/12 24/23/12 26/25/12 25/26/12
f 25/26/13 26/25/13 28/27/13 27/28/13
f 27/28/14 28/27/14 30/29/14 29/30/14
f 29/30/15 30/29/15 32/31/15 31/32/15
f 31/32/16 32/31/16 34/33/16 33/34/16
f 33/34/17 34/33/17 36/35/17 35/36/17
f 35/36/18 36/35/18 38/37/18 37/38/18
f 37/38/19 38/37/19 40/39/19 39/40/19
f 39/40/20 40/39/20 42/41/20 41/42/20
f 41/42/21 42/41/21 44/43/21 43/44/21
f 43/44/22 44/43/22 46/45/22 45/46/22
f 45/46/23 46/45/23 48/47/23 47/48/23
f 47/48/24 48/47/24 50/49/24 49/50/24
f 49/50/25 50/49/25 52/51/25 51/52/25
f 51/52/26 52/51/26 54/53/26 53/54/26
f 53/54/27 54/53/27 56/55/27 55/56/27
f 55/56/28 56/55/28 58/57/28 57/58/28
f 57/58/29 58/57/29 60/59/29 59/60/29
f 59/60/30 60/59/30 62/61/30 61/62/30
f 4/63/31 2/64/31 64/65/31 62/66/31 60/67/31 58/68/31 56/69/31 54/70/31 52/71/31 50/72/31 48/73/31 46/74/31 44/75/31 42/76/31 40/77/31 38/78/31 36/79/31 34/80/31 32/81/31 30/82/31 28/83/31 26/84/31 24/85/31 22/86/31 20/87/31 18/88/31 16/89/31 14/90/31 12/91/31 10/92/31 8/93/31 6/94/31
f 61/62/32 62/61/32 64/95/32 63/96/32
f 63/96/33 64/95/33 2/97/33 1/98/33
f 1/99/34 3/100/34 5/101/34 7/102/34 9/103/34 11/104/34 13/105/34 15/106/34 17/107/34 19/108/34 21/109/34 23/110/34 25/111/34 27/112/34 29/113/34 31/114/34 33/115/34 35/116/34 37/117/34 39/118/34 41/119/34 43/120/34 45/121/34 47/122/34 49/123/34 51/124/34 53/125/34 55/126/34 57/127/34 59/128/34 61/129/34 63/130/34
f 65/1/35 66/2/35 68/3/35 67/4/35
f 67/4/36 68/3/36 70/5/36 69/6/36
f 69/6/37 70/5/37 72/7/37 71/8/37
f 71/8/38 72/7/38 74/9/38 73/10/38
f 73/10/39 74/9/39 76/11/39 75/12/39
f 75/12/40 76/11/40 78/13/40 77/14/40
f 77/14/41 78/13/41 80/15/41 79/16/41
f 79/16/42 80/15/42 82/17/42 81/18/42
f 81/18/43 82/17/43 84/19/43 83/20/43
f 83/20/44 84/19/44 86/21/44 85/22/44
f 85/22/45 86/21/45 88/23/45 87/24/45
f 87/24/46 88/23/46 90/25/46 89/26/46
f 89/26/47 90/25/47 92/27/47 91/28/47
f 91/28/48 92/27/48 94/29/48 93/30/48
f 93/30/49 94/29/49 96/31/49 95/32/49
f 95/32/50 96/31/50 98/33/50 97/34/50
f 97/34/51 98/33/51 100/35/51 99/36/51
f 99/36/52 100/35/52 102/37/52 101/38/52
f 101/38/53 102/37/53 104/39/53 103/40/53
f 103/40/54 104/39/54 106/41/54 105/42/54
f 105/42/55 106/41/55 108/43/55 107/44/55
f 107/44/56 108/43/56 110/45/56 109/46/56
f 109/46/57 110/45/57 112/47/57 111/48/57
f 111/48/58 112/47/58 114/49/58 113/50/58
f 113/50/59 114/49/59 116/51/59 115/52/59
f 115/52/60 116/51/60 118/53/60 117/54/60
f 117/54/61 118/53/61 120/55/61 119/56/61
f 119/56/62 120/55/62 122/57/62 121/58/62
f 121/58/63 122/57/63 124/59/63 123/60/63
f 123/60/64 124/59/64 126/61/64 125/62/64
f 68/63/65 66/64/65 128/65/65 126/66/65 124/67/65 122/68/65 120/69/65 118/70/65 116/71/65 114/72/65 112/73/65 110/74/65 108/75/65 106/76/65 104/77/65 102/78/65 100/79/65 98/80/65 96/81/65 94/82/65 92/83/65 90/84/65 88/85/65 86/86/65 84/87/65 82/88/65 80/89/65 78/90/65 76/91/65 74/92/65 72/93/65 70/94/65
f 125/62/66 126/61/66 128/95/66 127/96/66
f 127/96/67 128/95/67 66/97/67 65/98/67
f 65/99/68 67/100/68 69/101/68 71/102/68 73/103/68 75/104/68 77/105/68 79/106/68 81/107/68 83/108/68 85/109/68 87/110/68 89/111/68 91/112/68 93/113/68 95/114/68 97/115/68 99/116/68 101/117/68 103/118/68 105/119/68 107/120/68 109/121/68 111/122/68 113/123/68 115/124/68 117/125/68 119/126/68 121/127/68 123/128/68 125/129/68 127/130/68
f 129/1/1 130/2/1 132/3/1 131/4/1
f 131/4/2 132/3/2 134/5/2 133/6/2
f 133/6/3 134/5/3 136/7/3 135/8/3
f 135/8/4 136/7/4 138/9/4 137/10/4
f 137/10/5 138/9/5 140/11/5 139/12/5
f 139/12/6 140/11/6 142/13/6 141/14/6
f 141/14/7 142/13/7 144/15/7 143/16/7
f 143/16/8 144/15/8 146/17/8 145/18/8
f 145/18/9 146/17/9 148/19/9 147/20/9
f 147/20/10 148/19/10 150/21/10 149/22/10
f 149/22/11 150/21/11 152/23/11 151/24/11
f 151/24/12 152/23/12 154/25/12 153/26/12
f 153/26/13 154/25/13 156/27/13 155/28/13
f 155/28/14 156/27/14 158/29/14 157/30/14
f 157/30/15 158/29/15 160/31/15 159/32/15
f 159/32/16 160/31/16 162/33/16 161/34/16
f 161/34/17 162/33/17 164/35/17 163/36/17
f 163/36/18 164/35/18 166/37/18 165/38/18
f 165/38/19 166/37/19 168/39/19 167/40/19
f 167/40/20 168/39/20 170/41/20 169/42/20
f 169/42/21 170/41/21 172/43/21 171/44/21
f 171/44/22 172/43/22 174/45/22 173/46/22
f 173/46/23 174/45/23 176/47/23 175/48/23
f 175/48/24 176/47/24 178/49/24 177/50/24
f 177/50/25 178/49/25 180/51/25 179/52/25
f 179/52/26 180/51/26 182/53/26 181/54/26
f 181/54/27 182/53/27 184/55/27 183/56/27
f 183/56/28 184/55/28 186/57/28 185/58/28
f 185/58/29 186/57/29 188/59/29 187/60/29
f 187/60/30 188/59/30 190/61/30 189/62/30
f 132/63/31 130/64/31 192/65/31 190/66/31 188/67/31 186/68/31 184/69/31 182/70/31 180/71/31 178/72/31 176/73/31 174/74/31 172/75/31 170/76/31 168/77/31 166/78/31 164/79/31 162/80/31 160/81/31 158/82/31 156/83/31 154/84/31 152/85/31 150/86/31 148/87/31 146/88/31 144/89/31 142/90/31 140/91/31 138/92/31 136/93/31 134/94/31
f 189/62/32 190/61/32 192/95/32 191/96/32
f 191/96/33 192/95/33 130/97/33 129/98/33
f 129/99/34 131/100/34 133/101/34 135/102/34 137/103/34 139/104/34 141/105/34 143/106/34 145/107/34 147/108/34 149/109/34 151/110/34 153/111/34 155/112/34 157/113/34 159/114/34 161/115/34 163/116/34 165/117/34 167/118/34 169/119/34 171/120/34 173/121/34 175/122/34 177/123/34 179/124/34 181/125/34 183/126/34 185/127/34 187/128/34 189/129/34 191/130/34
