# Blender 4.3.2
# www.blender.org
mtllib mypipes_large_pipe_t.mtl
o Cylinder
v -0.000000 -0.102113 0.000542
v -0.000000 -0.102113 0.500000
v 0.039018 -0.105956 0.000542
v 0.039018 -0.105956 0.500000
v 0.076537 -0.117337 0.000542
v 0.076537 -0.117337 0.500000
v 0.111114 -0.135819 0.000542
v 0.111114 -0.135819 0.500000
v 0.141421 -0.160691 0.000542
v 0.141421 -0.160691 0.500000
v 0.166294 -0.190999 0.000542
v 0.166294 -0.190999 0.500000
v 0.184776 -0.225576 0.000542
v 0.184776 -0.225576 0.500000
v 0.196157 -0.263095 0.000542
v 0.196157 -0.263095 0.500000
v 0.200000 -0.302113 0.000542
v 0.200000 -0.302113 0.500000
v 0.196157 -0.341131 0.000542
v 0.196157 -0.341131 0.500000
v 0.184776 -0.378649 0.000542
v 0.184776 -0.378649 0.500000
v 0.166294 -0.413227 0.000542
v 0.166294 -0.413227 0.500000
v 0.141421 -0.443534 0.000542
v 0.141421 -0.443534 0.500000
v 0.111114 -0.468407 0.000542
v 0.111114 -0.468407 0.500000
v 0.076537 -0.486889 0.000542
v 0.076537 -0.486889 0.500000
v 0.039018 -0.498270 0.000542
v 0.039018 -0.498270 0.500000
v -0.000000 -0.502113 0.000542
v -0.000000 -0.502113 0.500000
v -0.039018 -0.498270 0.000542
v -0.039018 -0.498270 0.500000
v -0.076537 -0.486889 0.000542
v -0.076537 -0.486889 0.500000
v -0.111114 -0.468407 0.000542
v -0.111114 -0.468407 0.500000
v -0.141421 -0.443534 0.000542
v -0.141421 -0.443534 0.500000
v -0.166294 -0.413227 0.000542
v -0.166294 -0.413227 0.500000
v -0.184776 -0.378649 0.000542
v -0.184776 -0.378649 0.500000
v -0.196157 -0.341131 0.000542
v -0.196157 -0.341131 0.500000
v -0.200000 -0.302113 0.000542
v -0.200000 -0.302113 0.500000
v -0.196157 -0.263095 0.000542
v -0.196157 -0.263095 0.500000
v -0.184776 -0.225576 0.000542
v -0.184776 -0.225576 0.500000
v -0.166294 -0.190999 0.000542
v -0.166294 -0.190999 0.500000
v -0.141421 -0.160691 0.000542
v -0.141421 -0.160691 0.500000
v -0.111114 -0.135819 0.000542
v -0.111114 -0.135819 0.500000
v -0.076537 -0.117337 0.000542
v -0.076537 -0.117337 0.500000
v -0.039018 -0.105956 0.000542
v -0.039018 -0.105956 0.500000
vn 0.0980 0.9952 -0.0000
vn 0.2903 0.9569 -0.0000
vn 0.4714 0.8819 -0.0000
vn 0.6344 0.7730 -0.0000
vn 0.7730 0.6344 -0.0000
vn 0.8819 0.4714 -0.0000
vn 0.9569 0.2903 -0.0000
vn 0.9952 0.0980 -0.0000
vn 0.9952 -0.0980 -0.0000
vn 0.9569 -0.2903 -0.0000
vn 0.8819 -0.4714 -0.0000
vn 0.7730 -0.6344 -0.0000
vn 0.6344 -0.7730 -0.0000
vn 0.4714 -0.8819 -0.0000
vn 0.2903 -0.9569 -0.0000
vn 0.0980 -0.9952 -0.0000
vn -0.0980 -0.9952 -0.0000
vn -0.2903 -0.9569 -0.0000
vn -0.4714 -0.8819 -0.0000
vn -0.6344 -0.7730 -0.0000
vn -0.7730 -0.6344 -0.0000
vn -0.8819 -0.4714 -0.0000
vn -0.9569 -0.2903 -0.0000
vn -0.9952 -0.0980 -0.0000
vn -0.9952 0.0980 -0.0000
vn -0.9569 0.2903 -0.0000
vn -0.8819 0.4714 -0.0000
vn -0.7730 0.6344 -0.0000
vn -0.6344 0.7730 -0.0000
vn -0.4714 0.8819 -0.0000
vn -0.0000 -0.0000 1.0000
vn -0.2903 0.9569 -0.0000
vn -0.0980 0.9952 -0.0000
vn -0.0000 -0.0000 -1.0000
vt 0.372265 0.992860
vt 0.372265 0.007728
vt 0.466969 0.007728
vt 0.466969 0.992860
vt 0.556179 0.007728
vt 0.556179 0.992860
vt 0.636465 0.007728
vt 0.636465 0.992860
vt 0.704743 0.007728
vt 0.704743 0.992860
vt 0.011504 0.007728
vt 0.011504 -0.977404
vt 0.079782 -0.977404
vt 0.079782 0.007728
vt 0.160069 -0.977404
vt 0.160069 0.007728
vt 0.249278 -0.977404
vt 0.249278 0.007728
vt 0.343983 -0.977404
vt 0.343983 0.007728
vt 0.440543 -0.977404
vt 0.440543 0.007728
vt 0.535247 -0.977404
vt 0.535247 0.007728
vt 0.624457 -0.977404
vt 0.624457 0.007728
vt 0.704743 -0.977404
vt 0.704743 0.007728
vt 0.773021 -0.977404
vt 0.773021 0.007728
vt 0.704743 0.992860
vt 0.704743 0.007728
vt 0.785030 0.007728
vt 0.785030 0.992860
vt 0.874239 0.007728
vt 0.874239 0.992860
vt 0.968944 0.007728
vt 0.968944 0.992860
vt 1.065504 0.007728
vt 1.065504 0.992860
vt 1.160208 0.007728
vt 1.160208 0.992860
vt 1.249418 0.007728
vt 1.249418 0.992860
vt 1.329704 0.007728
vt 1.329704 0.992860
vt 1.397982 0.007728
vt 1.397982 0.992860
vt 0.773021 0.007728
vt 0.773021 -0.977404
vt 0.853308 -0.977404
vt 0.853308 0.007728
vt 0.942517 -0.977404
vt 0.942517 0.007728
vt 1.037222 -0.977404
vt 1.037222 0.007728
vt 1.133782 -0.977404
vt 1.133782 0.007728
vt 1.228486 -0.977404
vt 1.228486 0.007728
vt 1.317696 -0.977404
vt 1.317696 0.007728
vt 1.397982 -0.977404
vt 1.397982 0.007728
vt 0.011504 0.992860
vt 0.011504 0.007728
vt 0.091791 0.007728
vt 0.091791 0.992860
vt 0.181000 0.007728
vt 0.181000 0.992860
vt -0.791170 -0.106451
vt -0.859448 -0.174729
vt -0.913094 -0.255016
vt -0.950046 -0.344226
vt -0.968884 -0.438930
vt -0.968884 -0.535490
vt -0.950046 -0.630194
vt -0.913094 -0.719404
vt -0.859448 -0.799690
vt -0.791170 -0.867968
vt -0.710884 -0.921614
vt -0.621674 -0.958566
vt -0.526970 -0.977404
vt -0.430410 -0.977404
vt -0.335706 -0.958566
vt -0.246496 -0.921614
vt -0.166209 -0.867968
vt -0.097931 -0.799690
vt -0.044286 -0.719404
vt -0.007334 -0.630194
vt 0.011504 -0.535490
vt 0.011504 -0.438930
vt -0.007334 -0.344226
vt -0.044285 -0.255016
vt -0.097931 -0.174729
vt -0.166209 -0.106451
vt -0.246496 -0.052806
vt -0.335705 -0.015854
vt -0.430410 0.002984
vt -0.526970 0.002984
vt -0.621674 -0.015854
vt -0.710884 -0.052806
vt 0.275705 0.007728
vt 0.275705 0.992860
vt -0.859448 0.805659
vt -0.913094 0.725372
vt -0.950046 0.636162
vt -0.968884 0.541458
vt -0.968884 0.444898
vt -0.950046 0.350194
vt -0.913094 0.260984
vt -0.859448 0.180698
vt -0.791170 0.112420
vt -0.710884 0.058774
vt -0.621674 0.021822
vt -0.526970 0.002984
vt -0.430410 0.002984
vt -0.335705 0.021822
vt -0.246496 0.058774
vt -0.166209 0.112420
vt -0.097931 0.180698
vt -0.044285 0.260984
vt -0.007334 0.350194
vt 0.011504 0.444898
vt 0.011504 0.541458
vt -0.007334 0.636162
vt -0.044285 0.725372
vt -0.097931 0.805659
vt -0.166209 0.873937
vt -0.246496 0.927582
vt -0.335705 0.964534
vt -0.430410 0.983372
vt -0.526970 0.983372
vt -0.621674 0.964534
vt -0.710884 0.927582
vt -0.791170 0.873937
s 0
usemtl Material.001
f 1/1/1 2/2/1 4/3/1 3/4/1
f 3/4/2 4/3/2 6/5/2 5/6/2
f 5/6/3 6/5/3 8/7/3 7/8/3
f 7/8/4 8/7/4 10/9/4 9/10/4
f 9/11/5 10/12/5 12/13/5 11/14/5
f 11/14/6 12/13/6 14/15/6 13/16/6
f 13/16/7 14/15/7 16/17/7 15/18/7
f 15/18/8 16/17/8 18/19/8 17/20/8
f 17/20/9 18/19/9 20/21/9 19/22/9
f 19/22/10 20/21/10 22/23/10 21/24/10
f 21/24/11 22/23/11 24/25/11 23/26/11
f 23/26/12 24/25/12 26/27/12 25/28/12
f 25/28/13 26/27/13 28/29/13 27/30/13
f 27/31/14 28/32/14 30/33/14 29/34/14
f 29/34/15 30/33/15 32/35/15 31/36/15
f 31/36/16 32/35/16 34/37/16 33/38/16
f 33/38/17 34/37/17 36/39/17 35/40/17
f 35/40/18 36/39/18 38/41/18 37/42/18
f 37/42/19 38/41/19 40/43/19 39/44/19
f 39/44/20 40/43/20 42/45/20 41/46/20
f 41/46/21 42/45/21 44/47/21 43/48/21
f 43/49/22 44/50/22 46/51/22 45/52/22
f 45/52/23 46/51/23 48/53/23 47/54/23
f 47/54/24 48/53/24 50/55/24 49/56/24
f 49/56/25 50/55/25 52/57/25 51/58/25
f 51/58/26 52/57/26 54/59/26 53/60/26
f 53/60/27 54/59/27 56/61/27 55/62/27
f 55/62/28 56/61/28 58/63/28 57/64/28
f 57/65/29 58/66/29 60/67/29 59/68/29
f 59/68/30 60/67/30 62/69/30 61/70/30
f 4/71/31 2/72/31 64/73/31 62/74/31 60/75/31 58/76/31 56/77/31 54/78/31 52/79/31 50/80/31 48/81/31 46/82/31 44/83/31 42/84/31 40/85/31 38/86/31 36/87/31 34/88/31 32/89/31 30/90/31 28/91/31 26/92/31 24/93/31 22/94/31 20/95/31 18/96/31 16/97/31 14/98/31 12/99/31 10/100/31 8/101/31 6/102/31
f 61/70/32 62/69/32 64/103/32 63/104/32
f 63/104/33 64/103/33 2/2/33 1/1/33
f 1/105/34 3/106/34 5/107/34 7/108/34 9/109/34 11/110/34 13/111/34 15/112/34 17/113/34 19/114/34 21/115/34 23/116/34 25/117/34 27/118/34 29/119/34 31/120/34 33/121/34 35/122/34 37/123/34 39/124/34 41/125/34 43/126/34 45/127/34 47/128/34 49/129/34 51/130/34 53/131/34 55/132/34 57/133/34 59/134/34 61/135/34 63/136/34
o Cylinder.001
v 0.500000 -0.302113 0.200000
v -0.500000 -0.302113 0.200000
v 0.500000 -0.341131 0.196157
v -0.500000 -0.341131 0.196157
v 0.500000 -0.378649 0.184776
v -0.500000 -0.378649 0.184776
v 0.500000 -0.413227 0.166294
v -0.500000 -0.413227 0.166294
v 0.500000 -0.443534 0.141422
v -0.500000 -0.443534 0.141421
v 0.500000 -0.468407 0.111114
v -0.500000 -0.468407 0.111114
v 0.500000 -0.486889 0.076537
v -0.500000 -0.486889 0.076537
v 0.500000 -0.498270 0.039018
v -0.500000 -0.498270 0.039018
v 0.500000 -0.502113 0.000000
v -0.500000 -0.502113 -0.000000
v 0.500000 -0.498270 -0.039018
v -0.500000 -0.498270 -0.039018
v 0.500000 -0.486889 -0.076536
v -0.500000 -0.486889 -0.076537
v 0.500000 -0.468407 -0.111114
v -0.500000 -0.468407 -0.111114
v 0.500000 -0.443534 -0.141421
v -0.500000 -0.443534 -0.141421
v 0.500000 -0.413227 -0.166294
v -0.500000 -0.413227 -0.166294
v 0.500000 -0.378649 -0.184776
v -0.500000 -0.378649 -0.184776
v 0.500000 -0.341131 -0.196157
v -0.500000 -0.341131 -0.196157
v 0.500000 -0.302113 -0.200000
v -0.500000 -0.302113 -0.200000
v 0.500000 -0.263095 -0.196157
v -0.500000 -0.263095 -0.196157
v 0.500000 -0.225576 -0.184776
v -0.500000 -0.225576 -0.184776
v 0.500000 -0.190999 -0.166294
v -0.500000 -0.190999 -0.166294
v 0.500000 -0.160691 -0.141421
v -0.500000 -0.160691 -0.141421
v 0.500000 -0.135819 -0.111114
v -0.500000 -0.135819 -0.111114
v 0.500000 -0.117337 -0.076536
v -0.500000 -0.117337 -0.076537
v 0.500000 -0.105956 -0.039018
v -0.500000 -0.105956 -0.039018
v 0.500000 -0.102113 0.000000
v -0.500000 -0.102113 -0.000000
v 0.500000 -0.105956 0.039018
v -0.500000 -0.105956 0.039018
v 0.500000 -0.117337 0.076537
v -0.500000 -0.117337 0.076537
v 0.500000 -0.135819 0.111114
v -0.500000 -0.135819 0.111114
v 0.500000 -0.160691 0.141422
v -0.500000 -0.160691 0.141421
v 0.500000 -0.190999 0.166294
v -0.500000 -0.190999 0.166294
v 0.500000 -0.225576 0.184776
v -0.500000 -0.225576 0.184776
v 0.500000 -0.263095 0.196157
v -0.500000 -0.263095 0.196157
vn -0.0000 -0.0980 0.9952
vn -0.0000 -0.2903 0.9569
vn -0.0000 -0.4714 0.8819
vn -0.0000 -0.6344 0.7730
vn -0.0000 -0.7730 0.6344
vn -0.0000 -0.8819 0.4714
vn -0.0000 -0.9569 0.2903
vn -0.0000 -0.9952 0.0980
vn -0.0000 -0.9952 -0.0980
vn -0.0000 -0.9569 -0.2903
vn -0.0000 -0.8819 -0.4714
vn -0.0000 -0.7730 -0.6344
vn -0.0000 -0.6344 -0.7730
vn -0.0000 -0.4714 -0.8819
vn -0.0000 -0.2903 -0.9569
vn -0.0000 -0.0980 -0.9952
vn -0.0000 0.0980 -0.9952
vn -0.0000 0.2903 -0.9569
vn -0.0000 0.4714 -0.8819
vn -0.0000 0.6344 -0.7730
vn -0.0000 0.7730 -0.6344
vn -0.0000 0.8819 -0.4714
vn -0.0000 0.9569 -0.2903
vn -0.0000 0.9952 -0.0980
vn -0.0000 0.9952 0.0980
vn -0.0000 0.9569 0.2903
vn -0.0000 0.8819 0.4714
vn -0.0000 0.7730 0.6344
vn -0.0000 0.6344 0.7730
vn -0.0000 0.4714 0.8819
vn -1.0000 -0.0000 -0.0000
vn -0.0000 0.2903 0.9569
vn -0.0000 0.0980 0.9952
vn 1.0000 -0.0000 -0.0000
vt 0.372265 0.992860
vt 0.372265 0.007728
vt 0.466969 0.007728
vt 0.466969 0.992860
vt 0.556179 0.007728
vt 0.556179 0.992860
vt 0.636465 0.007728
vt 0.636465 0.992860
vt 0.704743 0.007728
vt 0.704743 0.992860
vt 0.011504 0.007728
vt 0.011504 -0.977404
vt 0.079782 -0.977404
vt 0.079782 0.007728
vt 0.160069 -0.977404
vt 0.160069 0.007728
vt 0.249278 -0.977404
vt 0.249278 0.007728
vt 0.343983 -0.977404
vt 0.343983 0.007728
vt 0.440543 -0.977404
vt 0.440543 0.007728
vt 0.535247 -0.977404
vt 0.535247 0.007728
vt 0.624457 -0.977404
vt 0.624457 0.007728
vt 0.704743 -0.977404
vt 0.704743 0.007728
vt 0.773021 -0.977404
vt 0.773021 0.007728
vt 0.704743 0.992860
vt 0.704743 0.007728
vt 0.785030 0.007728
vt 0.785030 0.992860
vt 0.874239 0.007728
vt 0.874239 0.992860
vt 0.968944 0.007728
vt 0.968944 0.992860
vt 1.065504 0.007728
vt 1.065504 0.992860
vt 1.160208 0.007728
vt 1.160208 0.992860
vt 1.249418 0.007728
vt 1.249418 0.992860
vt 1.329704 0.007728
vt 1.329704 0.992860
vt 1.397982 0.007728
vt 1.397982 0.992860
vt 0.773021 0.007728
vt 0.773021 -0.977404
vt 0.853308 -0.977404
vt 0.853308 0.007728
vt 0.942517 -0.977404
vt 0.942517 0.007728
vt 1.037222 -0.977404
vt 1.037222 0.007728
vt 1.133782 -0.977404
vt 1.133782 0.007728
vt 1.228486 -0.977404
vt 1.228486 0.007728
vt 1.317696 -0.977404
vt 1.317696 0.007728
vt 1.397982 -0.977404
vt 1.397982 0.007728
vt 0.011504 0.992860
vt 0.011504 0.007728
vt 0.091791 0.007728
vt 0.091791 0.992860
vt 0.181000 0.007728
vt 0.181000 0.992860
vt -0.791170 -0.106451
vt -0.859448 -0.174729
vt -0.913094 -0.255016
vt -0.950046 -0.344226
vt -0.968884 -0.438930
vt -0.968884 -0.535490
vt -0.950046 -0.630194
vt -0.913094 -0.719404
vt -0.859448 -0.799690
vt -0.791170 -0.867968
vt -0.710884 -0.921614
vt -0.621674 -0.958566
vt -0.526970 -0.977404
vt -0.430410 -0.977404
vt -0.335706 -0.958566
vt -0.246496 -0.921614
vt -0.166209 -0.867968
vt -0.097931 -0.799690
vt -0.044286 -0.719404
vt -0.007334 -0.630194
vt 0.011504 -0.535490
vt 0.011504 -0.438930
vt -0.007334 -0.344226
vt -0.044285 -0.255016
vt -0.097931 -0.174729
vt -0.166209 -0.106451
vt -0.246496 -0.052806
vt -0.335705 -0.015854
vt -0.430410 0.002984
vt -0.526970 0.002984
vt -0.621674 -0.015854
vt -0.710884 -0.052806
vt 0.275705 0.007728
vt 0.275705 0.992860
vt -0.859448 0.805659
vt -0.913094 0.725372
vt -0.950046 0.636162
vt -0.968884 0.541458
vt -0.968884 0.444898
vt -0.950046 0.350194
vt -0.913094 0.260984
vt -0.859448 0.180698
vt -0.791170 0.112420
vt -0.710884 0.058774
vt -0.621674 0.021822
vt -0.526970 0.002984
vt -0.430410 0.002984
vt -0.335705 0.021822
vt -0.246496 0.058774
vt -0.166209 0.112420
vt -0.097931 0.180698
vt -0.044285 0.260984
vt -0.007334 0.350194
vt 0.011504 0.444898
vt 0.011504 0.541458
vt -0.007334 0.636162
vt -0.044285 0.725372
vt -0.097931 0.805659
vt -0.166209 0.873937
vt -0.246496 0.927582
vt -0.335705 0.964534
vt -0.430410 0.983372
vt -0.526970 0.983372
vt -0.621674 0.964534
vt -0.710884 0.927582
vt -0.791170 0.873937
s 0
usemtl Material.001
f 65/137/35 66/138/35 68/139/35 67/140/35
f 67/140/36 68/139/36 70/141/36 69/142/36
f 69/142/37 70/141/37 72/143/37 71/144/37
f 71/144/38 72/143/38 74/145/38 73/146/38
f 73/147/39 74/148/39 76/149/39 75/150/39
f 75/150/40 76/149/40 78/151/40 77/152/40
f 77/152/41 78/151/41 80/153/41 79/154/41
f 79/154/42 80/153/42 82/155/42 81/156/42
f 81/156/43 82/155/43 84/157/43 83/158/43
f 83/158/44 84/157/44 86/159/44 85/160/44
f 85/160/45 86/159/45 88/161/45 87/162/45
f 87/162/46 88/161/46 90/163/46 89/164/46
f 89/164/47 90/163/47 92/165/47 91/166/47
f 91/167/48 92/168/48 94/169/48 93/170/48
f 93/170/49 94/169/49 96/171/49 95/172/49
f 95/172/50 96/171/50 98/173/50 97/174/50
f 97/174/51 98/173/51 100/175/51 99/176/51
f 99/176/52 100/175/52 102/177/52 101/178/52
f 101/178/53 102/177/53 104/179/53 103/180/53
f 103/180/54 104/179/54 106/181/54 105/182/54
f 105/182/55 106/181/55 108/183/55 107/184/55
f 107/185/56 108/186/56 110/187/56 109/188/56
f 109/188/57 110/187/57 112/189/57 111/190/57
f 111/190/58 112/189/58 114/191/58 113/192/58
f 113/192/59 114/191/59 116/193/59 115/194/59
f 115/194/60 116/193/60 118/195/60 117/196/60
f 117/196/61 118/195/61 120/197/61 119/198/61
f 119/198/62 120/197/62 122/199/62 121/200/62
f 121/201/63 122/202/63 124/203/63 123/204/63
f 123/204/64 124/203/64 126/205/64 125/206/64
f 68/207/65 66/208/65 128/209/65 126/210/65 124/211/65 122/212/65 120/213/65 118/214/65 116/215/65 114/216/65 112/217/65 110/218/65 108/219/65 106/220/65 104/221/65 102/222/65 100/223/65 98/224/65 96/225/65 94/226/65 92/227/65 90/228/65 88/229/65 86/230/65 84/231/65 82/232/65 80/233/65 78/234/65 76/235/65 74/236/65 72/237/65 70/238/65
f 125/206/66 126/205/66 128/239/66 127/240/66
f 127/240/67 128/239/67 66/138/67 65/137/67
f 65/241/68 67/242/68 69/243/68 71/244/68 73/245/68 75/246/68 77/247/68 79/248/68 81/249/68 83/250/68 85/251/68 87/252/68 89/253/68 91/254/68 93/255/68 95/256/68 97/257/68 99/258/68 101/259/68 103/260/68 105/261/68 107/262/68 109/263/68 111/264/68 113/265/68 115/266/68 117/267/68 119/268/68 121/269/68 123/270/68 125/271/68 127/272/68
